<?xml version="1.0" encoding="utf-8"?>
<!-- Generator: Adobe Illustrator 18.0.0, SVG Export Plug-In . SVG Version: 6.00 Build 0)  -->
<!DOCTYPE svg PUBLIC "-//W3C//DTD SVG 1.1//EN" "http://www.w3.org/Graphics/SVG/1.1/DTD/svg11.dtd">
<svg version="1.1" id="Capa_1" xmlns="http://www.w3.org/2000/svg" xmlns:xlink="http://www.w3.org/1999/xlink" x="0px" y="0px"
	 viewBox="0 0 208 41.6" enable-background="new 0 0 208 41.6" xml:space="preserve">
<g>
	<path fill="#1D1D1B" d="M30.5,38.6c-0.8,0.4-1.6,0.9-2.6,1.2c-1,0.4-2.1,0.7-3.1,1c-1.1,0.3-2.2,0.5-3.3,0.6
		c-1.1,0.1-2.1,0.2-3,0.2c-6.1,0-10.7-1.8-13.8-5.3C1.6,32.8,0,27.6,0,20.8c0-3.6,0.5-6.7,1.4-9.3C2.3,8.8,3.6,6.7,5.2,5
		C6.8,3.3,8.7,2,10.9,1.2C13.1,0.4,15.4,0,17.9,0c1,0,2,0.1,3.1,0.1c1.1,0.1,2.2,0.3,3.2,0.5c1.1,0.2,2.1,0.4,3,0.7
		c0.9,0.3,1.7,0.6,2.4,0.9c0,0.6,0,1.3-0.1,2.1c-0.1,0.8-0.2,1.7-0.4,2.5c-0.2,0.9-0.3,1.7-0.5,2.6c-0.2,0.8-0.4,1.6-0.6,2.3
		c-1.7-0.8-3.4-1.4-5-1.9c-1.7-0.4-3.2-0.7-4.6-0.7c-1,0-1.9,0.2-2.8,0.5c-0.9,0.3-1.6,0.9-2.2,1.7c-0.6,0.8-1.1,2-1.5,3.5
		c-0.4,1.5-0.5,3.4-0.5,5.8c0,2.2,0.1,4.1,0.5,5.6c0.3,1.5,0.8,2.7,1.4,3.6c0.6,0.9,1.4,1.5,2.3,1.9c0.9,0.4,2,0.6,3.2,0.6
		c1.6,0,3.2-0.3,5.1-1c1.8-0.7,3.4-1.5,4.9-2.4c0.2,0.6,0.4,1.4,0.6,2.2c0.2,0.8,0.4,1.7,0.5,2.6c0.2,0.9,0.3,1.8,0.5,2.6
		C30.4,37.2,30.5,38,30.5,38.6z"/>
	<path fill="#1D1D1B" d="M63,36.5c-0.1,1.6-0.3,3.1-0.5,4.5H37.3V0.6h25c0,1.3-0.1,2.8-0.2,4.4c-0.1,1.7-0.3,3.2-0.5,4.5H47.9V16h10
		v8.8h-10v7.3h15.2C63.2,33.4,63.1,34.9,63,36.5z"/>
	<path fill="#1D1D1B" d="M98.8,38.6c-0.8,0.4-1.6,0.9-2.6,1.2c-1,0.4-2.1,0.7-3.1,1c-1.1,0.3-2.2,0.5-3.3,0.6
		c-1.1,0.1-2.1,0.2-3,0.2c-6.1,0-10.7-1.8-13.8-5.3c-3.1-3.5-4.7-8.7-4.7-15.6c0-3.6,0.5-6.7,1.4-9.3c0.9-2.6,2.2-4.8,3.8-6.5
		C75,3.3,76.9,2,79.1,1.2C81.3,0.4,83.6,0,86.2,0c1,0,2,0.1,3.1,0.1c1.1,0.1,2.2,0.3,3.2,0.5c1.1,0.2,2.1,0.4,3,0.7
		c0.9,0.3,1.7,0.6,2.4,0.9c0,0.6,0,1.3-0.1,2.1c-0.1,0.8-0.2,1.7-0.4,2.5c-0.2,0.9-0.3,1.7-0.5,2.6c-0.2,0.8-0.4,1.6-0.6,2.3
		c-1.7-0.8-3.4-1.4-5-1.9c-1.7-0.4-3.2-0.7-4.6-0.7c-1,0-1.9,0.2-2.8,0.5c-0.9,0.3-1.6,0.9-2.2,1.7c-0.6,0.8-1.1,2-1.5,3.5
		c-0.4,1.5-0.5,3.4-0.5,5.8c0,2.2,0.1,4.1,0.5,5.6c0.3,1.5,0.8,2.7,1.4,3.6c0.6,0.9,1.4,1.5,2.3,1.9c0.9,0.4,2,0.6,3.2,0.6
		c1.6,0,3.2-0.3,5.1-1c1.8-0.7,3.4-1.5,4.9-2.4c0.2,0.6,0.4,1.4,0.6,2.2c0.2,0.8,0.4,1.7,0.5,2.6c0.2,0.9,0.3,1.8,0.5,2.6
		C98.6,37.2,98.7,38,98.8,38.6z"/>
	<path fill="#1D1D1B" d="M105.5,41V0.6h10.7V41H105.5z"/>
	<path fill="#1D1D1B" d="M149.7,36.5c-0.1,1.7-0.3,3.2-0.5,4.5h-24.1V0.6h10.7v31.3h14C149.9,33.3,149.8,34.8,149.7,36.5z"/>
	<path fill="#1D1D1B" d="M156.2,41V0.6h10.7V41H156.2z"/>
	<path fill="#1D1D1B" d="M208,40.4c-1.4,0.3-3,0.6-4.9,0.7s-3.7,0.2-5.5,0.2l-2.5-9.7h-9.8l-0.6,2.5c-0.4,1.4-0.8,2.6-1.2,3.6
		c-0.4,1-0.9,1.7-1.5,2.3c-0.6,0.6-1.3,1-2.1,1.2c-0.8,0.2-1.8,0.4-2.9,0.4c-2.3,0-4-0.5-4.9-1.6c-1-1.1-1.4-2.7-1.4-4.7v-2.2h2.2
		c0.7,0,1.2-0.1,1.4-0.4c0.2-0.3,0.4-0.8,0.7-1.6l9.3-30.5h12.2c2.1,6.6,4.2,13.3,6.1,20.1C204.7,27.5,206.5,34.1,208,40.4z
		 M191,15.2c-0.1-0.4-0.2-1-0.3-1.9c-0.1-0.9-0.2-1.7-0.2-2.4h-0.7c0,0.7-0.1,1.5-0.2,2.4c-0.1,0.9-0.2,1.5-0.3,1.9l-1.9,7.9h5.7
		L191,15.2z"/>
</g>
<rect x="-2.7" y="122.5" fill="none" width="356.3" height="55.5"/>
<text transform="matrix(1 0 0 1 -2.7001 167.0402)" fill="#1D1D1B" font-family="'VistaSansAltBlack'" font-size="60">CECILIA BRU </text>
</svg>
