<?xml version="1.0" encoding="utf-8"?>
<!-- Generator: Adobe Illustrator 18.0.0, SVG Export Plug-In . SVG Version: 6.00 Build 0)  -->
<!DOCTYPE svg PUBLIC "-//W3C//DTD SVG 1.1//EN" "http://www.w3.org/Graphics/SVG/1.1/DTD/svg11.dtd">
<svg version="1.1" id="Capa_1" xmlns="http://www.w3.org/2000/svg" xmlns:xlink="http://www.w3.org/1999/xlink" x="0px" y="0px"
	 viewBox="0 0 209.6 41.6" enable-background="new 0 0 209.6 41.6" xml:space="preserve">
<path fill="#1D1D1B" d="M30.5,38.6c-0.8,0.4-1.6,0.9-2.6,1.2c-1,0.4-2.1,0.7-3.1,1c-1.1,0.3-2.2,0.5-3.3,0.6c-1.1,0.1-2.1,0.2-3,0.2
	c-6.1,0-10.7-1.8-13.8-5.3C1.6,32.8,0,27.6,0,20.8c0-3.6,0.5-6.7,1.4-9.3C2.3,8.8,3.6,6.7,5.2,5C6.8,3.3,8.7,2,10.9,1.2
	C13.1,0.4,15.4,0,17.9,0c1,0,2,0.1,3.1,0.1c1.1,0.1,2.2,0.3,3.2,0.5c1.1,0.2,2.1,0.4,3,0.7c0.9,0.3,1.7,0.6,2.4,0.9
	c0,0.6,0,1.3-0.1,2.1c-0.1,0.8-0.2,1.7-0.4,2.5c-0.2,0.9-0.3,1.7-0.5,2.6c-0.2,0.8-0.4,1.6-0.6,2.3c-1.7-0.8-3.4-1.4-5-1.9
	c-1.7-0.4-3.2-0.7-4.6-0.7c-1,0-1.9,0.2-2.8,0.5c-0.9,0.3-1.6,0.9-2.2,1.7c-0.6,0.8-1.1,2-1.5,3.5c-0.4,1.5-0.5,3.4-0.5,5.8
	c0,2.2,0.1,4.1,0.5,5.6c0.3,1.5,0.8,2.7,1.4,3.6c0.6,0.9,1.4,1.5,2.3,1.9c0.9,0.4,2,0.6,3.2,0.6c1.6,0,3.2-0.3,5.1-1
	c1.8-0.7,3.4-1.5,4.9-2.4c0.2,0.6,0.4,1.4,0.6,2.2c0.2,0.8,0.4,1.7,0.5,2.6c0.2,0.9,0.3,1.8,0.5,2.6C30.4,37.2,30.5,38,30.5,38.6z"
	/>
<path fill="#1D1D1B" d="M63,36.5c-0.1,1.6-0.3,3.1-0.5,4.5H37.3V0.6h25c0,1.3-0.1,2.8-0.2,4.4c-0.1,1.7-0.3,3.2-0.5,4.5H47.9V16h10
	v8.8h-10v7.3h15.2C63.2,33.4,63.1,34.9,63,36.5z"/>
<path fill="#1D1D1B" d="M97.8,38.6c-0.8,0.4-1.6,0.9-2.6,1.2c-1,0.4-2.1,0.7-3.1,1c-1.1,0.3-2.2,0.5-3.3,0.6c-1.1,0.1-2.1,0.2-3,0.2
	c-6.1,0-10.7-1.8-13.8-5.3c-3.1-3.5-4.7-8.7-4.7-15.6c0-3.6,0.5-6.7,1.4-9.3c0.9-2.6,2.2-4.8,3.8-6.5C74,3.3,75.9,2,78.1,1.2
	C80.3,0.4,82.6,0,85.2,0c1,0,2,0.1,3.1,0.1c1.1,0.1,2.2,0.3,3.2,0.5c1.1,0.2,2.1,0.4,3,0.7c0.9,0.3,1.7,0.6,2.4,0.9
	c0,0.6,0,1.3-0.1,2.1c-0.1,0.8-0.2,1.7-0.4,2.5c-0.2,0.9-0.3,1.7-0.5,2.6c-0.2,0.8-0.4,1.6-0.6,2.3c-1.7-0.8-3.4-1.4-5-1.9
	c-1.7-0.4-3.2-0.7-4.6-0.7c-1,0-1.9,0.2-2.8,0.5c-0.9,0.3-1.6,0.9-2.2,1.7c-0.6,0.8-1.1,2-1.5,3.5c-0.4,1.5-0.5,3.4-0.5,5.8
	c0,2.2,0.1,4.1,0.5,5.6c0.3,1.5,0.8,2.7,1.4,3.6c0.6,0.9,1.4,1.5,2.3,1.9c0.9,0.4,2,0.6,3.2,0.6c1.6,0,3.2-0.3,5.1-1
	c1.8-0.7,3.4-1.5,4.9-2.4c0.2,0.6,0.4,1.4,0.6,2.2c0.2,0.8,0.4,1.7,0.5,2.6c0.2,0.9,0.3,1.8,0.5,2.6C97.6,37.2,97.7,38,97.8,38.6z"
	/>
<path fill="#1D1D1B" d="M104.5,41V0.6h10.7V41H104.5z"/>
<path fill="#1D1D1B" d="M148.7,36.5c-0.1,1.7-0.3,3.2-0.5,4.5h-24.1V0.6h10.7v31.3h14C148.9,33.3,148.8,34.8,148.7,36.5z"/>
<path fill="#1D1D1B" d="M155.2,41V0.6h10.7V41H155.2z"/>
<path fill="#1D1D1B" d="M176,20.7c2-6.8,4-13.5,6.1-20.1l12.2,0l9.3,30.5c0.2,0.8,0.5,1.3,0.7,1.6c0.2,0.3,0.7,0.4,1.4,0.4h2.2v2.2
	c0,2.1-0.5,3.7-1.4,4.7c-1,1.1-2.6,1.6-4.9,1.6c-1.1,0-2.1-0.1-2.9-0.4c-0.8-0.2-1.5-0.6-2.1-1.2c-0.6-0.6-1.1-1.3-1.5-2.3
	c-0.4-1-0.8-2.2-1.2-3.6l-0.6-2.5h-9.8l-2.5,9.7c-1.8,0-3.6-0.1-5.5-0.2s-3.5-0.4-4.9-0.7C172.3,34.1,174,27.5,176,20.7z
	 M185.7,23.2h5.7l-1.9-7.9c-0.1-0.4-0.2-1-0.3-1.9c-0.1-0.9-0.2-1.7-0.2-2.4h-0.7c0,0.7-0.1,1.5-0.2,2.4c-0.1,0.9-0.2,1.5-0.3,1.9
	L185.7,23.2z"/>
<rect x="-2.7" y="122.5" fill="none" width="356.3" height="55.5"/>
<text transform="matrix(1 0 0 1 -2.7001 167.0402)" fill="#1D1D1B" font-family="'VistaSansAltBlack'" font-size="60">CECILIA BRU </text>
<g>
	<path fill="#1D1D1B" d="M121.4,115.7c-1,0.8-2.5,1.3-4.3,1.3c-1,0-1.9-0.1-2.7-0.3c-0.8-0.2-1.5-0.5-2.2-1
		c-0.7-0.5-1.3-1.1-1.9-1.9c-0.6-0.8-1.2-1.8-1.7-3.1l-4.1-9.2h-3v14.9H91V85.9c0-0.8-0.1-1.3-0.4-1.6c-0.2-0.3-0.7-0.4-1.4-0.4h-3
		v-2.2c0-2.1,0.7-3.7,2-4.7c1.3-1.1,3.2-1.6,5.7-1.6c1.2,0,2.3,0.1,3.4,0.4c1,0.3,2,0.8,2.8,1.5c0.9-0.6,1.9-1,3-1.4
		c1.1-0.4,2.7-0.5,4.7-0.5c1.7,0,3.2,0.2,4.7,0.7c1.4,0.5,2.7,1.2,3.8,2.2c1.1,1,1.9,2.2,2.5,3.7s0.9,3.3,0.9,5.4
		c0,2.3-0.5,4.4-1.5,6.3c-1,1.9-2.5,3.3-4.4,4.3l4.4,8.5c0.3,0.7,0.7,1.2,1,1.5c0.4,0.3,1,0.5,2,0.5h1.9v3.4
		C122.9,113.6,122.4,114.9,121.4,115.7z"/>
</g>
<path fill="#1D1D1B" d="M30.5-36c-0.8,0.4-1.6,0.9-2.6,1.2c-1,0.4-2.1,0.7-3.1,1c-1.1,0.3-2.2,0.5-3.3,0.6c-1.1,0.1-2.1,0.2-3,0.2
	c-6.1,0-10.7-1.8-13.8-5.3C1.6-41.8,0-47,0-53.9c0-3.6,0.5-6.7,1.4-9.3c0.9-2.6,2.2-4.8,3.8-6.5c1.6-1.7,3.5-2.9,5.7-3.8
	c2.2-0.8,4.5-1.2,7.1-1.2c1,0,2,0.1,3.1,0.1c1.1,0.1,2.2,0.3,3.2,0.5c1.1,0.2,2.1,0.4,3,0.7c0.9,0.3,1.7,0.6,2.4,0.9
	c0,0.6,0,1.3-0.1,2.1c-0.1,0.8-0.2,1.7-0.4,2.5c-0.2,0.9-0.3,1.7-0.5,2.6c-0.2,0.8-0.4,1.6-0.6,2.3c-1.7-0.8-3.4-1.4-5-1.9
	c-1.7-0.4-3.2-0.7-4.6-0.7c-1,0-1.9,0.2-2.8,0.5c-0.9,0.3-1.6,0.9-2.2,1.7c-0.6,0.8-1.1,2-1.5,3.5c-0.4,1.5-0.5,3.4-0.5,5.8
	c0,2.2,0.1,4.1,0.5,5.6c0.3,1.5,0.8,2.7,1.4,3.6c0.6,0.9,1.4,1.5,2.3,1.9c0.9,0.4,2,0.6,3.2,0.6c1.6,0,3.2-0.3,5.1-1
	c1.8-0.7,3.4-1.5,4.9-2.4c0.2,0.6,0.4,1.4,0.6,2.2c0.2,0.8,0.4,1.7,0.5,2.6c0.2,0.9,0.3,1.8,0.5,2.6C30.4-37.5,30.5-36.7,30.5-36z"
	/>
<path fill="#1D1D1B" d="M63-38.2c-0.1,1.6-0.3,3.1-0.5,4.5H37.3v-40.4h25c0,1.3-0.1,2.8-0.2,4.4c-0.1,1.7-0.3,3.2-0.5,4.5H47.9v6.5
	h10v8.8h-10v7.3h15.2C63.2-41.2,63.1-39.8,63-38.2z"/>
<path fill="#1D1D1B" d="M98.8-36c-0.8,0.4-1.6,0.9-2.6,1.2c-1,0.4-2.1,0.7-3.1,1c-1.1,0.3-2.2,0.5-3.3,0.6c-1.1,0.1-2.1,0.2-3,0.2
	c-6.1,0-10.7-1.8-13.8-5.3c-3.1-3.5-4.7-8.7-4.7-15.6c0-3.6,0.5-6.7,1.4-9.3c0.9-2.6,2.2-4.8,3.8-6.5c1.6-1.7,3.5-2.9,5.7-3.8
	c2.2-0.8,4.5-1.2,7.1-1.2c1,0,2,0.1,3.1,0.1c1.1,0.1,2.2,0.3,3.2,0.5c1.1,0.2,2.1,0.4,3,0.7c0.9,0.3,1.7,0.6,2.4,0.9
	c0,0.6,0,1.3-0.1,2.1c-0.1,0.8-0.2,1.7-0.4,2.5c-0.2,0.9-0.3,1.7-0.5,2.6c-0.2,0.8-0.4,1.6-0.6,2.3c-1.7-0.8-3.4-1.4-5-1.9
	c-1.7-0.4-3.2-0.7-4.6-0.7c-1,0-1.9,0.2-2.8,0.5c-0.9,0.3-1.6,0.9-2.2,1.7c-0.6,0.8-1.1,2-1.5,3.5c-0.4,1.5-0.5,3.4-0.5,5.8
	c0,2.2,0.1,4.1,0.5,5.6c0.3,1.5,0.8,2.7,1.4,3.6c0.6,0.9,1.4,1.5,2.3,1.9c0.9,0.4,2,0.6,3.2,0.6c1.6,0,3.2-0.3,5.1-1
	c1.8-0.7,3.4-1.5,4.9-2.4c0.2,0.6,0.4,1.4,0.6,2.2c0.2,0.8,0.4,1.7,0.5,2.6c0.2,0.9,0.3,1.8,0.5,2.6C98.6-37.5,98.7-36.7,98.8-36z"
	/>
<path fill="#1D1D1B" d="M105.5-33.6v-40.4h10.7v40.4H105.5z"/>
<path fill="#1D1D1B" d="M149.7-38.2c-0.1,1.7-0.3,3.2-0.5,4.5h-24.1v-40.4h10.7v31.3h14C149.9-41.4,149.8-39.9,149.7-38.2z"/>
<path fill="#1D1D1B" d="M156.2-33.6v-40.4h10.7v40.4H156.2z"/>
<path fill="#1D1D1B" d="M177-54c2-6.8,4-13.5,6.1-20.1h12.2l9.3,30.5c0.2,0.8,0.5,1.3,0.7,1.6c0.2,0.3,0.7,0.4,1.4,0.4h2.2v2.2
	c0,2.1-0.5,3.7-1.4,4.7c-1,1.1-2.6,1.6-4.9,1.6c-1.1,0-2.1-0.1-2.9-0.4c-0.8-0.2-1.5-0.6-2.1-1.2c-0.6-0.6-1.1-1.3-1.5-2.3
	c-0.4-1-0.8-2.2-1.2-3.6l-0.6-2.5h-9.8l-2.5,9.7c-1.8,0-3.6-0.1-5.5-0.2s-3.5-0.4-4.9-0.7C173.3-40.6,175-47.2,177-54z M186.7-51.5
	h5.7l-1.9-7.9c-0.1-0.4-0.2-1-0.3-1.9c-0.1-0.9-0.2-1.7-0.2-2.4h-0.7c0,0.7-0.1,1.5-0.2,2.4c-0.1,0.9-0.2,1.5-0.3,1.9L186.7-51.5z"
	/>
<rect x="25.1" y="-67.5" fill="#FFFFFF" width="5.8" height="8"/>
<path fill="#1D1D1B" d="M23.4-74.1c0.6,0.3,1,0.4,1.3,0.3c0.3-0.1,0.5-0.4,0.8-0.9l1.1-2.2l1.7,0.8c1.5,0.7,2.5,1.8,2.8,3.1
	c0.3,1.4,0.1,3-0.8,4.8c-0.5,1.1-1.1,2-1.7,2.6c-0.6,0.6-1.3,1-2,1.2c-0.7,0.2-1.5,0.2-2.3,0.1c-0.8-0.1-1.6-0.4-2.5-0.8"/>
<rect x="26.1" y="0.4" transform="matrix(0.9852 0.1717 -0.1717 0.9852 1.1906 -4.9005)" fill="#FFFFFF" width="5.8" height="8"/>
<path fill="#1D1D1B" d="M26.5,1.1c1,0.4,1.8,0.9,2.5,1.5c0.7,0.6,1.2,1.2,1.5,2c0.3,0.8,0.5,1.6,0.4,2.6c-0.1,1-0.4,2.1-0.9,3.3
	c-0.9,2.1-2.1,3.4-3.5,4.1c-1.4,0.7-2.9,0.6-4.7-0.1L20,13.6l1.1-2.5c0.3-0.6,0.3-1,0.2-1.3c-0.1-0.3-0.5-0.6-1.2-0.9"/>
</svg>
