<?xml version="1.0" encoding="utf-8"?>
<!-- Generator: Adobe Illustrator 18.1.1, SVG Export Plug-In . SVG Version: 6.00 Build 0)  -->
<svg version="1.1" id="Layer_1" xmlns="http://www.w3.org/2000/svg" xmlns:xlink="http://www.w3.org/1999/xlink" x="0px" y="0px"
	 viewBox="17 194.3 814.1 193" enable-background="new 17 194.3 814.1 193" xml:space="preserve">
<rect y="180.5" fill="none" width="841.9" height="232"/>
<g enable-background="new    ">
	<path d="M132.4,217.7c-0.5,7.5-1.4,14.8-2.5,21.9H68.1v35.1h51.7V315H68.1v67.5H19.7V199h113.5
		C133.2,203.9,132.9,210.2,132.4,217.7z"/>
	<path d="M309.3,379.5c-4.7,3.8-11.3,5.7-19.6,5.7c-4.5,0-8.6-0.4-12.3-1.2c-3.6-0.8-7-2.3-10.1-4.5c-3.1-2.2-5.9-5.1-8.6-8.7
		c-2.6-3.6-5.2-8.3-7.8-13.9L232.3,315h-13.6v67.5h-47.4V244.2c0-3.6-0.5-6-1.6-7.2c-1.1-1.2-3.3-1.8-6.5-1.8h-13.6v-10.1
		c0-9.4,3-16.6,9-21.5s14.6-7.4,25.9-7.4c5.4,0,10.5,0.6,15.2,1.9c4.7,1.3,8.9,3.5,12.5,6.8c4-2.5,8.5-4.6,13.6-6.3
		c5.1-1.6,12.2-2.5,21.2-2.5c7.6,0,14.7,1.1,21.2,3.3c6.5,2.2,12.3,5.5,17.2,9.9c4.9,4.4,8.7,10.1,11.4,16.9
		c2.7,6.8,4.1,14.9,4.1,24.4c0,10.5-2.3,20.1-6.8,28.6c-4.5,8.5-11.2,15-19.9,19.3l19.9,38.7c1.5,3.1,3,5.4,4.6,6.8
		c1.6,1.5,4.7,2.2,9.3,2.2h8.4v15.5C316.4,369.8,314,375.7,309.3,379.5z M252.1,255.9c0-7.6-1.6-13.2-4.8-16.6
		c-3.2-3.4-7.8-5.2-13.7-5.2c-1.8,0-4.2,0.2-7.2,0.5c-3,0.4-5.6,0.7-7.8,1.1v43.8h12c6.4,0,11.5-1.6,15.5-4.9
		C250.1,271.5,252.1,265.2,252.1,255.9z"/>
	<path d="M458.4,362c-0.6,7.4-1.4,14.2-2.3,20.6H341.7V199H455c0,5.8-0.3,12.5-1,20c-0.6,7.5-1.4,14.4-2.3,20.6h-61.5V269h45.2v40
		h-45.2v33.2h69.1C459.3,348,459,354.6,458.4,362z"/>
	<path d="M649.9,287c0,15.6-2.1,29.5-6.3,41.7c-4.2,12.2-10,22.4-17.6,30.8c-7.5,8.3-16.5,14.7-27,19.1c-10.4,4.4-21.9,6.5-34.4,6.5
		c-5.1,0-10.6-0.1-16.5-0.3c-5.9-0.2-11.8-0.5-17.8-0.8c-6-0.4-11.7-0.8-17.2-1.4s-10.3-1.2-14.7-1.9V244.2c0-3.6-0.5-6-1.6-7.2
		c-1.1-1.2-3.3-1.8-6.5-1.8h-13.6v-10.1c0-9.4,3-16.6,9-21.5c6-4.9,14.6-7.4,25.9-7.4c6,0,11.2,0.7,15.7,2c4.4,1.4,8.5,3.6,12.1,6.7
		c4.7-3.1,10.1-5.3,16.2-6.7c6.1-1.4,12.2-2,18.4-2c10.7,0,20.7,1.7,29.9,5.2c9.3,3.4,17.3,8.8,24.1,16.2
		c6.8,7.4,12.2,16.7,16.1,28.2C647.9,257.3,649.9,271,649.9,287z M598.4,290.2c0-10.3-0.9-19-2.6-25.9c-1.7-6.9-4.1-12.4-7.1-16.5
		c-3-4.1-6.6-7-10.9-8.7c-4.3-1.7-9-2.6-14.3-2.6c-2.4,0-5.1,0.2-8.3,0.7c-3.2,0.5-6.1,1-8.8,1.5v104.5c2.5,0.2,5.4,0.3,8.7,0.3
		s6,0,8.2,0c6,0,11.2-0.8,15.7-2.5c4.4-1.6,8.1-4.5,11-8.6c2.9-4.1,5-9.5,6.4-16.3C597.7,309.4,598.4,300.8,598.4,290.2z"/>
	<path d="M828.5,379.8c-6.4,1.5-13.7,2.5-22.2,3.1s-16.7,1-24.9,1l-11.2-43.8h-44.6l-2.7,11.4c-1.6,6.5-3.4,12-5.3,16.3
		c-1.9,4.4-4.2,7.8-6.9,10.3c-2.7,2.5-5.9,4.4-9.5,5.4c-3.6,1.1-8,1.6-13.1,1.6c-10.5,0-18-2.5-22.3-7.4s-6.5-12.1-6.5-21.5v-10.1
		h10.1c3.3,0,5.4-0.6,6.4-1.9c1-1.3,2-3.6,3.1-7.1L720.9,199h55.5c9.6,29.9,18.9,60.3,27.9,91.2
		C813.3,321.1,821.4,350.9,828.5,379.8z M751.1,265.5c-0.4-1.6-0.9-4.5-1.5-8.6c-0.6-4.1-1-7.7-1-10.8h-3.3c0,3.1-0.3,6.7-1,10.8
		c-0.6,4.1-1.1,6.9-1.5,8.6l-8.4,35.9h25.9L751.1,265.5z"/>
</g>
</svg>
